<svg width="250" height="250" viewBox="0 0 250 250" fill="none" xmlns="http://www.w3.org/2000/svg">
<g filter="url(#filter0_d)">
<circle cx="125" cy="121" r="35" fill="white"/>
</g>
<circle cx="135" cy="127" r="7" fill="#54C62B"/>
<path d="M136.495 116.099C136.38 115.958 136.196 115.731 136.13 115.617C136.126 115.479 136.175 115.169 136.206 114.978C136.322 114.244 136.482 113.239 135.936 112.297C135.385 111.347 134.427 110.983 133.724 110.715C133.548 110.648 133.263 110.539 133.147 110.47C133.079 110.356 132.971 110.074 132.903 109.9L132.9 109.892C132.634 109.194 132.269 108.237 131.316 107.687C130.374 107.143 129.368 107.302 128.634 107.418C128.441 107.449 128.128 107.498 127.991 107.494C127.877 107.429 127.65 107.245 127.51 107.131L127.506 107.128C126.919 106.652 126.117 106 125.003 106C123.889 106 123.087 106.652 122.502 107.127L122.496 107.131C122.356 107.245 122.129 107.429 122.015 107.494C121.878 107.498 121.565 107.449 121.372 107.419C120.638 107.302 119.632 107.143 118.69 107.687C117.737 108.237 117.372 109.194 117.107 109.89L117.103 109.9C117.036 110.074 116.927 110.356 116.859 110.47C116.743 110.539 116.458 110.648 116.279 110.716C115.579 110.983 114.621 111.347 114.07 112.297C113.526 113.237 113.684 114.241 113.8 114.978C113.831 115.169 113.88 115.479 113.876 115.617C113.81 115.731 113.625 115.958 113.51 116.1C113.032 116.685 112.379 117.487 112.379 118.601C112.379 119.715 113.032 120.516 113.509 121.1C113.624 121.241 113.81 121.469 113.876 121.583C113.88 121.721 113.831 122.031 113.8 122.226C113.684 122.959 113.525 123.964 114.07 124.904C114.621 125.854 115.579 126.218 116.278 126.484C116.455 126.552 116.742 126.661 116.859 126.731C116.927 126.845 117.035 127.125 117.102 127.299L117.106 127.308C117.372 128.007 117.737 128.963 118.689 129.514C119.319 129.878 119.978 129.927 120.567 129.885V135.447C120.567 136.05 120.876 136.596 121.394 136.906C121.665 137.068 121.967 137.149 122.268 137.149C122.543 137.149 122.819 137.082 123.072 136.945L124.376 136.248C124.76 136.042 125.245 136.042 125.63 136.248L126.933 136.945C127.465 137.231 128.093 137.216 128.612 136.906C129.13 136.596 129.439 136.05 129.439 135.447V129.885C130.027 129.927 130.687 129.878 131.317 129.514C132.269 128.963 132.634 128.007 132.899 127.311L132.903 127.301C132.97 127.127 133.078 126.845 133.147 126.731C133.264 126.661 133.55 126.552 133.727 126.484C134.427 126.218 135.385 125.854 135.936 124.904C136.482 123.962 136.322 122.957 136.206 122.222C136.175 122.031 136.126 121.722 136.129 121.584C136.195 121.47 136.379 121.244 136.493 121.104L136.497 121.099C136.974 120.514 137.627 119.714 137.627 118.601C137.627 117.487 136.974 116.685 136.495 116.099ZM127.614 135.24L126.492 134.639C126.036 134.395 125.521 134.265 125.003 134.265C124.485 134.265 123.97 134.395 123.515 134.639L122.392 135.24V129.985C122.431 130.017 122.469 130.048 122.502 130.075C123.088 130.55 123.89 131.201 125.003 131.201C126.116 131.201 126.918 130.55 127.506 130.073C127.539 130.047 127.575 130.017 127.614 129.986V135.24H127.614ZM135.082 119.946L135.077 119.953C134.767 120.334 134.473 120.695 134.363 121.103C134.248 121.533 134.327 122.028 134.403 122.509C134.493 123.074 134.577 123.608 134.357 123.988C134.131 124.378 133.62 124.573 133.077 124.779C132.628 124.95 132.164 125.127 131.853 125.436C131.548 125.742 131.371 126.202 131.2 126.646L131.195 126.658C130.99 127.198 130.795 127.707 130.403 127.934C130.022 128.154 129.487 128.07 128.919 127.98C128.666 127.94 128.405 127.899 128.157 127.887C127.908 127.873 127.697 127.891 127.512 127.94C127.103 128.049 126.74 128.344 126.354 128.658C125.899 129.027 125.469 129.376 125.003 129.376C124.537 129.376 124.108 129.027 123.651 128.657C123.284 128.359 122.905 128.051 122.494 127.94C122.349 127.901 122.187 127.882 122.006 127.882C121.752 127.895 121.327 127.942 121.086 127.98C120.519 128.069 119.984 128.154 119.603 127.933C119.211 127.707 119.017 127.198 118.81 126.656L118.806 126.644C118.635 126.2 118.458 125.741 118.151 125.434C117.843 125.127 117.378 124.95 116.928 124.778C116.386 124.572 115.875 124.378 115.649 123.988C115.429 123.609 115.514 123.075 115.603 122.508C115.679 122.028 115.758 121.533 115.642 121.102C115.532 120.692 115.223 120.313 114.924 119.946C114.554 119.493 114.204 119.064 114.204 118.601C114.204 118.137 114.554 117.708 114.926 117.252C115.238 116.869 115.532 116.507 115.643 116.097C115.758 115.667 115.679 115.171 115.603 114.69C115.514 114.125 115.429 113.592 115.649 113.212C115.875 112.823 116.386 112.628 116.933 112.42C117.381 112.25 117.844 112.073 118.153 111.764C118.459 111.458 118.635 110.999 118.806 110.555L118.811 110.542C119.017 110.003 119.211 109.493 119.602 109.267C119.985 109.047 120.52 109.132 121.087 109.221C121.567 109.297 122.063 109.375 122.493 109.261C122.901 109.152 123.263 108.859 123.645 108.55L123.651 108.544C124.107 108.175 124.537 107.825 125.003 107.825C125.469 107.825 125.899 108.175 126.356 108.545L126.361 108.549C126.743 108.859 127.105 109.152 127.513 109.261C127.943 109.375 128.439 109.297 128.919 109.221C129.486 109.132 130.022 109.047 130.404 109.267C130.795 109.493 130.99 110.003 131.196 110.545L131.2 110.555C131.371 110.999 131.548 111.459 131.854 111.765C132.162 112.073 132.625 112.25 133.078 112.423C133.62 112.628 134.131 112.823 134.357 113.213C134.578 113.593 134.493 114.127 134.403 114.692C134.327 115.171 134.248 115.667 134.364 116.099C134.474 116.508 134.768 116.869 135.082 117.254C135.452 117.708 135.802 118.137 135.802 118.601C135.802 119.064 135.452 119.493 135.082 119.946Z" fill="#2E2E2E"/>
<path d="M125.003 111.066C120.828 111.066 117.431 114.457 117.431 118.624C117.431 122.792 120.828 126.183 125.003 126.183C129.178 126.183 132.575 122.792 132.575 118.624C132.575 114.457 129.178 111.066 125.003 111.066ZM125.003 124.358C121.834 124.358 119.257 121.786 119.257 118.624C119.257 115.463 121.834 112.891 125.003 112.891C128.172 112.891 130.749 115.463 130.749 118.624C130.749 121.786 128.172 124.358 125.003 124.358Z" fill="#2E2E2E"/>
<defs>
<filter id="filter0_d" x="0" y="-0.00012207" width="250" height="250" filterUnits="userSpaceOnUse" color-interpolation-filters="sRGB">
<feFlood flood-opacity="0" result="BackgroundImageFix"/>
<feColorMatrix in="SourceAlpha" type="matrix" values="0 0 0 0 0 0 0 0 0 0 0 0 0 0 0 0 0 0 127 0"/>
<feOffset dy="4"/>
<feGaussianBlur stdDeviation="45"/>
<feColorMatrix type="matrix" values="0 0 0 0 0 0 0 0 0 0 0 0 0 0 0 0 0 0 0.15 0"/>
<feBlend mode="normal" in2="BackgroundImageFix" result="effect1_dropShadow"/>
<feBlend mode="normal" in="SourceGraphic" in2="effect1_dropShadow" result="shape"/>
</filter>
</defs>
</svg>
