<svg width="250" height="250" viewBox="0 0 250 250" fill="none" xmlns="http://www.w3.org/2000/svg">
<g filter="url(#filter0_d)">
<circle cx="125" cy="121" r="35" fill="white"/>
</g>
<circle cx="135" cy="124" r="7" fill="#54C62B"/>
<path d="M131.814 108.974H111.689C110.758 108.974 110 109.732 110 110.663V122.737C110 123.668 110.758 124.426 111.689 124.426H112.994V128.921C112.994 129.207 113.167 129.465 113.431 129.575C113.519 129.611 113.611 129.629 113.702 129.629C113.886 129.629 114.067 129.557 114.202 129.421L119.198 124.426H120.2C120.591 124.426 120.907 124.109 120.907 123.719C120.907 123.328 120.591 123.011 120.2 123.011C120.2 123.011 118.87 123.012 118.856 123.013C118.692 123.024 118.53 123.092 118.404 123.218L114.41 127.212C114.41 127.212 114.408 123.674 114.406 123.655C114.374 123.294 114.071 123.011 113.702 123.011H111.689C111.538 123.011 111.415 122.888 111.415 122.737V110.663C111.415 110.512 111.538 110.389 111.689 110.389H131.814C131.965 110.389 132.088 110.512 132.088 110.663V115.295C132.088 115.686 132.405 116.003 132.795 116.003C133.186 116.003 133.503 115.686 133.503 115.295V110.663C133.503 109.732 132.745 108.974 131.814 108.974Z" fill="#2E2E2E"/>
<path d="M138.311 117.63H124.224C123.292 117.63 122.535 118.388 122.535 119.32V127.556C122.535 128.488 123.292 129.246 124.224 129.246H133.043L136.616 132.819C136.752 132.954 136.933 133.026 137.117 133.026C137.208 133.026 137.3 133.008 137.387 132.972C137.652 132.863 137.824 132.605 137.824 132.318V129.246H138.311C139.242 129.246 140 128.488 140 127.556V119.32C140 118.388 139.242 117.63 138.311 117.63ZM138.585 127.556C138.585 127.707 138.462 127.83 138.311 127.83H137.117C136.744 127.83 136.44 128.118 136.412 128.483C136.41 128.499 136.409 130.61 136.409 130.61L133.839 128.04C133.837 128.037 133.834 128.035 133.831 128.032C133.821 128.022 133.812 128.014 133.803 128.006C133.678 127.897 133.515 127.83 133.337 127.83H124.224C124.073 127.83 123.95 127.707 123.95 127.556V119.32C123.95 119.169 124.073 119.046 124.224 119.046H138.311C138.462 119.046 138.585 119.169 138.585 119.32V127.556Z" fill="#2E2E2E"/>
<path d="M131.267 122.73C130.877 122.73 130.56 123.047 130.56 123.438C130.56 123.829 130.877 124.146 131.267 124.146C131.658 124.146 131.975 123.829 131.975 123.438C131.975 123.047 131.658 122.73 131.267 122.73Z" fill="#2E2E2E"/>
<path d="M128.192 113.653H115.312C114.921 113.653 114.604 113.97 114.604 114.361C114.604 114.752 114.921 115.068 115.312 115.068H128.192C128.583 115.068 128.899 114.752 128.899 114.361C128.899 113.97 128.583 113.653 128.192 113.653Z" fill="#2E2E2E"/>
<path d="M120.2 118.332H115.312C114.921 118.332 114.604 118.649 114.604 119.04C114.604 119.431 114.921 119.747 115.312 119.747H120.2C120.591 119.747 120.907 119.431 120.907 119.04C120.907 118.649 120.591 118.332 120.2 118.332Z" fill="#2E2E2E"/>
<path d="M127.979 122.73C127.588 122.73 127.271 123.047 127.271 123.438C127.271 123.829 127.588 124.146 127.979 124.146C128.369 124.146 128.686 123.829 128.686 123.438C128.686 123.047 128.369 122.73 127.979 122.73Z" fill="#2E2E2E"/>
<path d="M134.555 122.73C134.165 122.73 133.848 123.047 133.848 123.438C133.848 123.829 134.165 124.146 134.555 124.146C134.946 124.146 135.263 123.829 135.263 123.438C135.263 123.047 134.946 122.73 134.555 122.73Z" fill="#2E2E2E"/>
<defs>
<filter id="filter0_d" x="0" y="-0.00012207" width="250" height="250" filterUnits="userSpaceOnUse" color-interpolation-filters="sRGB">
<feFlood flood-opacity="0" result="BackgroundImageFix"/>
<feColorMatrix in="SourceAlpha" type="matrix" values="0 0 0 0 0 0 0 0 0 0 0 0 0 0 0 0 0 0 127 0"/>
<feOffset dy="4"/>
<feGaussianBlur stdDeviation="45"/>
<feColorMatrix type="matrix" values="0 0 0 0 0 0 0 0 0 0 0 0 0 0 0 0 0 0 0.15 0"/>
<feBlend mode="normal" in2="BackgroundImageFix" result="effect1_dropShadow"/>
<feBlend mode="normal" in="SourceGraphic" in2="effect1_dropShadow" result="shape"/>
</filter>
</defs>
</svg>
