<svg width="250" height="250" viewBox="0 0 250 250" fill="none" xmlns="http://www.w3.org/2000/svg">
<g filter="url(#filter0_d)">
<circle cx="125" cy="121" r="35" fill="white"/>
</g>
<circle cx="134" cy="131" r="7" fill="#54C62B"/>
<path d="M139 112.847C139 111.244 137.665 109.94 136.025 109.94C134.385 109.94 133.05 111.244 133.05 112.847C133.05 113.884 133.609 114.795 134.448 115.309L129.854 122.313L125.228 112.539C126.241 112.075 126.944 111.07 126.944 109.907C126.944 108.304 125.609 107 123.969 107C122.328 107 120.994 108.304 120.994 109.907C120.994 111.07 121.697 112.075 122.709 112.539L118.084 122.314L113.508 115.337C114.371 114.828 114.95 113.902 114.95 112.847C114.95 111.244 113.615 109.94 111.975 109.94C110.335 109.94 109 111.244 109 112.847C109 114.218 109.978 115.37 111.288 115.674V132.132C111.288 132.611 111.685 133 112.176 133H135.761C136.252 133 136.65 132.611 136.65 132.132V115.688C137.991 115.407 139 114.24 139 112.847ZM123.969 108.736C124.629 108.736 125.167 109.261 125.167 109.907C125.167 110.552 124.629 111.077 123.969 111.077C123.308 111.077 122.771 110.552 122.771 109.907C122.771 109.261 123.308 108.736 123.969 108.736ZM118.271 124.981C118.594 124.96 118.88 124.767 119.017 124.48L123.969 114.014L128.921 124.48C129.057 124.767 129.343 124.96 129.667 124.981C129.991 125.003 130.3 124.851 130.475 124.583L134.873 117.879V127.363H113.065V117.879L117.462 124.583C117.637 124.851 117.948 125.003 118.271 124.981ZM110.777 112.847C110.777 112.201 111.314 111.676 111.975 111.676C112.636 111.676 113.173 112.201 113.173 112.847C113.173 113.492 112.636 114.017 111.975 114.017C111.314 114.017 110.777 113.492 110.777 112.847ZM134.873 131.264H113.065V129.099H134.873V131.264ZM136.025 114.017C135.364 114.017 134.827 113.492 134.827 112.847C134.827 112.201 135.364 111.676 136.025 111.676C136.686 111.676 137.223 112.201 137.223 112.847C137.223 113.492 136.686 114.017 136.025 114.017Z" fill="#2E2E2E"/>
<defs>
<filter id="filter0_d" x="0" y="-0.00012207" width="250" height="250" filterUnits="userSpaceOnUse" color-interpolation-filters="sRGB">
<feFlood flood-opacity="0" result="BackgroundImageFix"/>
<feColorMatrix in="SourceAlpha" type="matrix" values="0 0 0 0 0 0 0 0 0 0 0 0 0 0 0 0 0 0 127 0"/>
<feOffset dy="4"/>
<feGaussianBlur stdDeviation="45"/>
<feColorMatrix type="matrix" values="0 0 0 0 0 0 0 0 0 0 0 0 0 0 0 0 0 0 0.15 0"/>
<feBlend mode="normal" in2="BackgroundImageFix" result="effect1_dropShadow"/>
<feBlend mode="normal" in="SourceGraphic" in2="effect1_dropShadow" result="shape"/>
</filter>
</defs>
</svg>
