<svg width="250" height="250" viewBox="0 0 250 250" fill="none" xmlns="http://www.w3.org/2000/svg">
<g filter="url(#filter0_d)">
<circle cx="125" cy="121" r="35" fill="white"/>
</g>
<circle cx="113" cy="131" r="7" fill="#54C62B"/>
<path d="M109 135C115.997 132.218 116.226 132.412 117.045 131.593C117.468 131.171 117.75 130.661 117.893 130.121L118.703 130.931L122.052 128.475C123.703 128.901 124.923 130.419 124.923 132.173V134.153L127.482 131.593C129.646 129.43 130.244 126.165 129.007 123.374L129.184 123.245C134.097 119.642 137 113.903 137 107.82V107H136.18C130.087 107 124.353 109.911 120.755 114.816L120.626 114.993C117.838 113.757 114.572 114.352 112.407 116.518L109.847 119.077H111.827C113.581 119.077 115.099 120.297 115.525 121.948L113.069 125.297L113.877 126.105C113.326 126.252 112.821 126.541 112.407 126.955C111.585 127.776 111.753 128.077 109 135V135ZM126.323 130.434L126.29 130.466C125.845 129.113 124.884 127.985 123.617 127.327L127.647 124.372C128.426 126.446 127.946 128.81 126.323 130.434ZM133.525 115.602L128.398 110.475C130.543 109.409 132.906 108.779 135.34 108.66C135.221 111.094 134.591 113.457 133.525 115.602ZM126.911 111.307L132.693 117.089C131.532 118.949 130.02 120.598 128.214 121.922C127.467 122.47 122.312 126.25 121.543 126.814L117.186 122.456C117.716 121.734 121.572 116.476 122.078 115.786C123.402 113.98 125.051 112.468 126.911 111.307ZM113.534 117.71L113.566 117.677C115.19 116.054 117.554 115.574 119.628 116.353L116.673 120.383C116.016 119.119 114.89 118.156 113.534 117.71ZM116.205 123.795L120.205 127.795L118.867 128.777C118.458 128.367 115.621 125.53 115.223 125.133L116.205 123.795ZM113.566 128.114C114.207 127.474 115.244 127.473 115.885 128.114L115.886 128.115C116.525 128.755 116.525 129.794 115.886 130.434C115.476 130.843 115.335 130.757 111.863 132.137C113.255 128.634 113.158 128.523 113.566 128.114Z" fill="#2E2E2E"/>
<path d="M128.642 118.837C129.604 117.876 129.604 116.32 128.642 115.358C127.683 114.399 126.122 114.399 125.163 115.358C124.202 116.319 124.201 117.875 125.163 118.837C126.122 119.796 127.683 119.796 128.642 118.837ZM126.323 116.518C126.643 116.198 127.163 116.198 127.482 116.518C127.803 116.838 127.803 117.357 127.482 117.677C127.163 117.997 126.643 117.997 126.323 117.677C126.002 117.357 126.002 116.838 126.323 116.518Z" fill="#2E2E2E"/>
<defs>
<filter id="filter0_d" x="0" y="-0.00012207" width="250" height="250" filterUnits="userSpaceOnUse" color-interpolation-filters="sRGB">
<feFlood flood-opacity="0" result="BackgroundImageFix"/>
<feColorMatrix in="SourceAlpha" type="matrix" values="0 0 0 0 0 0 0 0 0 0 0 0 0 0 0 0 0 0 127 0"/>
<feOffset dy="4"/>
<feGaussianBlur stdDeviation="45"/>
<feColorMatrix type="matrix" values="0 0 0 0 0 0 0 0 0 0 0 0 0 0 0 0 0 0 0.15 0"/>
<feBlend mode="normal" in2="BackgroundImageFix" result="effect1_dropShadow"/>
<feBlend mode="normal" in="SourceGraphic" in2="effect1_dropShadow" result="shape"/>
</filter>
</defs>
</svg>
