<svg width="20" height="23" viewBox="0 0 20 23" fill="none" xmlns="http://www.w3.org/2000/svg">
<g opacity="0.5">
<path d="M4.91714 15.5227C4.91714 15.7707 5.11834 15.9719 5.36634 15.9719C5.61434 15.9719 5.81554 15.7707 5.81554 15.5227V5.73219C5.81554 4.97858 6.37792 4.38618 7.04367 4.38618C7.70943 4.38618 8.2718 4.97858 8.2718 5.73219V12.0974C8.2718 12.3454 8.473 12.5466 8.721 12.5466C8.969 12.5466 9.1702 12.3454 9.1702 12.0974V5.73219C9.1702 4.50275 8.22489 3.48777 7.04367 3.48777C5.86245 3.48777 4.91714 4.50275 4.91714 5.73219V15.5227Z" fill="#2E2E2E" stroke="#2E2E2E" stroke-width="0.3"/>
<path d="M6.3445 21.8802L6.34395 21.8797L1.9086 17.4444C1.90859 17.4443 1.90858 17.4443 1.90857 17.4443C1.3632 16.8992 1.02719 16.2382 0.930097 15.6057C0.833031 14.9735 0.974373 14.3582 1.40168 13.9308L6.3445 21.8802ZM6.3445 21.8802C6.4321 21.9669 6.54698 22.011 6.66185 22.011C6.77658 22.011 6.89184 21.967 6.97916 21.8797C7.15442 21.7044 7.15442 21.4198 6.97916 21.2445L2.54378 16.8091L2.54374 16.8091M6.3445 21.8802L2.54374 16.8091M2.54374 16.8091C2.16076 16.4264 1.91775 15.9703 1.8319 15.5544C1.74547 15.1358 1.8211 14.7818 2.03693 14.566C2.51126 14.0917 3.31024 14.103 3.81814 14.6103L5.0484 15.8406C5.22367 16.0159 5.50834 16.0159 5.68361 15.8406C5.85888 15.6653 5.85888 15.3807 5.68361 15.2054L4.45329 13.9751C3.60264 13.1244 2.2342 13.0977 1.40172 13.9308L2.54374 16.8091Z" fill="#2E2E2E" stroke="#2E2E2E" stroke-width="0.3"/>
<path d="M11.6264 12.4397C11.6264 12.6877 11.8276 12.8889 12.0756 12.8889C12.3236 12.8889 12.5248 12.6877 12.5248 12.4397V10.9311C12.5248 9.83904 11.5585 8.97335 10.3983 8.97335C9.23806 8.97335 8.27114 9.83898 8.27114 10.9311V12.4397C8.27114 12.6877 8.47234 12.8889 8.72035 12.8889C8.96835 12.8889 9.16955 12.6877 9.16955 12.4397V10.9311C9.16955 10.3652 9.70152 9.87175 10.3983 9.87175C11.0944 9.87175 11.6264 10.3646 11.6264 10.9311V12.4397Z" fill="#2E2E2E" stroke="#2E2E2E" stroke-width="0.3"/>
<path d="M14.9799 12.4397C14.9799 12.6877 15.1811 12.8889 15.4291 12.8889C15.6779 12.8889 15.8783 12.6875 15.8783 12.4397V11.1807C15.8783 10.2073 14.8892 9.47242 13.7524 9.47242C12.6145 9.47242 11.6259 10.2073 11.6259 11.1807V12.4397C11.6259 12.6877 11.8271 12.8889 12.0751 12.8889C12.3231 12.8889 12.5243 12.6877 12.5243 12.4397V11.1807C12.5243 10.9851 12.6436 10.7859 12.869 10.6288C13.093 10.4728 13.4071 10.3708 13.7524 10.3708C14.0978 10.3708 14.4117 10.4727 14.6355 10.6286C14.8607 10.7855 14.9799 10.9847 14.9799 11.1807V12.4397Z" fill="#2E2E2E" stroke="#2E2E2E" stroke-width="0.3"/>
<path d="M18.3345 16.2803C18.3345 16.5283 18.5357 16.7295 18.7837 16.7295C19.0317 16.7295 19.2329 16.5283 19.2329 16.2803V12.165C19.2329 10.9356 18.287 9.92063 17.1064 9.92063C16.5274 9.92063 16.0029 10.0734 15.6187 10.3327C15.2344 10.592 14.9799 10.967 14.9799 11.4045V12.4391C14.9799 12.6871 15.1811 12.8883 15.4291 12.8883C15.6771 12.8883 15.8783 12.6871 15.8783 12.4391V11.4045C15.8783 11.3114 15.9615 11.167 16.1879 11.0363C16.4051 10.9108 16.7231 10.819 17.1064 10.819C17.7722 10.819 18.3345 11.4114 18.3345 12.165V16.2803Z" fill="#2E2E2E" stroke="#2E2E2E" stroke-width="0.3"/>
<path d="M6.68508 22.0086H16.39C17.9575 22.0086 19.2328 20.7333 19.2322 19.1652C19.2322 19.1652 19.2322 19.1651 19.2322 19.1651V15.9362C19.2322 15.6882 19.031 15.487 18.783 15.487C18.535 15.487 18.3338 15.6882 18.3338 15.9362V19.1658C18.3338 20.2379 17.4615 21.1102 16.3894 21.1102H6.66294C6.40782 21.1102 6.22451 21.3187 6.22451 21.5594C6.22451 21.8145 6.4444 22.0086 6.68508 22.0086Z" fill="#2E2E2E" stroke="#2E2E2E" stroke-width="0.3"/>
<path d="M10.6338 5.69568C10.6338 5.94369 10.835 6.14489 11.083 6.14489C11.3308 6.14489 11.5322 5.94448 11.5322 5.69568V5.33844C11.5322 2.86317 9.51903 0.85 7.04376 0.85C4.56849 0.85 2.55532 2.86317 2.55532 5.33844V5.69568C2.55532 5.94369 2.75652 6.14489 3.00452 6.14489C3.25253 6.14489 3.45373 5.94369 3.45373 5.69568V5.33844C3.45373 3.35918 5.0645 1.74841 7.04376 1.74841C9.02302 1.74841 10.6338 3.35918 10.6338 5.33844V5.69568Z" fill="#2E2E2E" stroke="#2E2E2E" stroke-width="0.3"/>
</g>
</svg>
