<svg width="13" height="17" viewBox="0 0 13 17" fill="none" xmlns="http://www.w3.org/2000/svg">
<path d="M12.2382 4.74723L8.20691 0.715979C8.1167 0.625705 7.98906 0.568359 7.85061 0.568359H0.79591C0.517633 0.568359 0.291992 0.79397 0.291992 1.07228V15.5176C0.291992 15.7959 0.517602 16.0216 0.79591 16.0216H11.8819C12.1601 16.0216 12.3858 15.7959 12.3858 15.5176V5.10353C12.3858 4.97553 12.3351 4.84412 12.2382 4.74723ZM8.35453 2.28879L9.50993 3.44419L10.6654 4.59961H8.35453V2.28879ZM11.378 15.0137H1.2998V1.57617H7.34669V5.10353C7.34669 5.38181 7.5723 5.60745 7.85061 5.60745H11.378V15.0137Z" fill="#54C62B"/>
<path d="M9.86584 7.95898H2.81111C2.53283 7.95898 2.30719 8.1846 2.30719 8.4629C2.30719 8.74118 2.5328 8.96682 2.81111 8.96682H9.86584C10.1441 8.96682 10.3698 8.74121 10.3698 8.4629C10.3697 8.1846 10.1441 7.95898 9.86584 7.95898Z" fill="#54C62B"/>
<path d="M9.86584 9.97437H2.81111C2.53283 9.97437 2.30719 10.2 2.30719 10.4783C2.30719 10.7566 2.5328 10.9822 2.81111 10.9822H9.86584C10.1441 10.9822 10.3698 10.7566 10.3698 10.4783C10.3698 10.2 10.1441 9.97437 9.86584 9.97437Z" fill="#54C62B"/>
<path d="M6.84239 11.9902H2.81111C2.53283 11.9902 2.30719 12.2158 2.30719 12.4942C2.30719 12.7725 2.5328 12.9981 2.81111 12.9981H6.84236C7.12064 12.9981 7.34628 12.7725 7.34628 12.4942C7.34628 12.2158 7.12067 11.9902 6.84239 11.9902Z" fill="#54C62B"/>
</svg>
