<svg width="13" height="17" viewBox="0 0 13 17" fill="none" xmlns="http://www.w3.org/2000/svg">
<path d="M6.44001 0.568359C2.88992 0.568359 0 3.45828 0 7.00837C0 7.41255 0.0370502 7.8201 0.114519 8.21755C0.117887 8.24113 0.13136 8.31186 0.158306 8.43312C0.255984 8.86761 0.400816 9.29538 0.589436 9.70293C1.28329 11.3365 2.80908 13.8458 6.15708 16.5336C6.24128 16.601 6.34233 16.6347 6.44338 16.6347C6.54442 16.6347 6.64547 16.601 6.72967 16.5336C10.0743 13.8458 11.6035 11.3365 12.2973 9.70293C12.4859 9.29538 12.6308 8.87098 12.7284 8.43312C12.7554 8.31186 12.7689 8.24113 12.7722 8.21755C12.8463 7.8201 12.8868 7.41255 12.8868 7.00837C12.88 3.45828 9.9901 0.568359 6.44001 0.568359ZM11.8696 8.05925C11.8696 8.06598 11.8662 8.07272 11.8662 8.07946C11.8628 8.0963 11.8527 8.14682 11.8359 8.22429C11.8359 8.22766 11.8359 8.22766 11.8359 8.23102C11.7517 8.60826 11.627 8.9754 11.462 9.32906C11.4586 9.33243 11.4586 9.33916 11.4553 9.34253C10.8254 10.8346 9.44445 13.1116 6.44001 15.5939C3.43557 13.1116 2.05461 10.8346 1.42475 9.34253C1.42138 9.33916 1.42138 9.33243 1.41801 9.32906C1.25634 8.97877 1.13172 8.60826 1.04414 8.23102C1.04414 8.22766 1.04414 8.22766 1.04414 8.22429C1.02393 8.14682 1.0172 8.0963 1.01383 8.07946C1.01383 8.07272 1.01046 8.06598 1.01046 8.05588C0.943097 7.70895 0.909415 7.35866 0.909415 7.005C0.909415 3.95677 3.39178 1.47441 6.44001 1.47441C9.48823 1.47441 11.9706 3.95677 11.9706 7.005C11.9706 7.36203 11.9369 7.71569 11.8696 8.05925Z" fill="#54C62B"/>
<path d="M6.44017 2.99023C4.18684 2.99023 2.35117 4.82591 2.35117 7.07923C2.35117 9.33256 4.18684 11.1682 6.44017 11.1682C8.69349 11.1682 10.5292 9.33256 10.5292 7.07923C10.5292 4.82591 8.69349 2.99023 6.44017 2.99023ZM6.44017 10.2588C4.68533 10.2588 3.26058 8.8307 3.26058 7.07923C3.26058 5.32777 4.6887 3.89965 6.44017 3.89965C8.19163 3.89965 9.61975 5.32777 9.61975 7.07923C9.61975 8.8307 8.195 10.2588 6.44017 10.2588Z" fill="#54C62B"/>
</svg>
