<svg width="18" height="18" viewBox="0 0 18 18" fill="none" xmlns="http://www.w3.org/2000/svg">
<g opacity="0.1">
<path d="M14.8738 6.56612L15.5759 4.39612C14.5496 2.9346 13.0389 1.82945 11.2896 1.30576L9.46484 2.62151V5.25727L12.389 7.37018L14.8738 6.56612Z" fill="white"/>
<path d="M17.0282 8.83868L15.1734 7.48831L12.6026 8.32358L11.5146 11.6681L13.0943 13.8423L15.3988 13.8461C16.422 12.4983 17.0303 10.8189 17.0303 9.00001C17.0303 8.94601 17.0293 8.89237 17.0282 8.83868Z" fill="white"/>
<path d="M5.38621 8.29067L2.80112 7.45079L0.972878 8.78C0.970878 8.85309 0.969727 8.92643 0.969727 9C0.969727 10.7948 1.56173 12.4538 2.56045 13.7925L4.84664 13.7996L6.45748 11.5824L5.38621 8.29067Z" fill="white"/>
<path d="M5.62 7.35048L8.49455 5.25739V2.62139L6.69103 1.30545C4.93376 1.83133 3.43267 2.94387 2.40576 4.41497L3.08831 6.52709L5.62 7.35048Z" fill="white"/>
<path d="M7.24282 12.1515L5.62549 14.3775L6.34137 16.5773C7.17397 16.8703 8.06876 17.0303 9.00028 17.0303C9.90434 17.0303 10.7739 16.88 11.5855 16.6033L12.3029 14.4024L10.6676 12.1515H7.24282Z" fill="white"/>
<path d="M9 0C4.03739 0 0 4.03739 0 9C0 13.9626 4.03739 18 9 18C13.9626 18 18 13.9626 18 9C18 4.03739 13.9626 0 9 0ZM9.46467 2.62152L11.2894 1.30576C13.0387 1.82952 14.5443 2.93461 15.5707 4.39612L14.8711 6.56612L12.3875 7.37024L9.46467 5.25733V2.62152ZM6.69145 1.30545L8.49497 2.62139V5.25739L5.62042 7.35048L3.09127 6.52703L2.40364 4.41497C3.43055 2.94388 4.93418 1.83133 6.69145 1.30545ZM2.56042 13.7925C1.5617 12.4538 0.969697 10.7948 0.969697 9C0.969697 8.92642 0.970849 8.85309 0.972849 8.78L2.80109 7.45073L5.38618 8.29061L6.45745 11.5824L4.84661 13.7996L2.56042 13.7925ZM11.5852 16.6033C10.7736 16.88 9.90406 17.0303 9 17.0303C8.06849 17.0303 7.1737 16.8703 6.34109 16.5773L5.62521 14.3775L7.24255 12.1515H10.6673L12.3027 14.4023L11.5852 16.6033ZM13.0943 13.8422L11.5147 11.668L12.6027 8.32351L15.1734 7.48824L17.0282 8.83861C17.0293 8.8923 17.0303 8.94594 17.0303 8.99994C17.0303 10.8188 16.4221 12.4982 15.3988 13.846L13.0943 13.8422Z" fill="black"/>
</g>
</svg>
