<svg width="24" height="20" viewBox="0 0 24 20" fill="none" xmlns="http://www.w3.org/2000/svg">
<path d="M21.7377 8.52969H21.1941V5.2631C21.1941 3.92741 20.1068 2.84479 18.7758 2.84479H18.2743L18.279 1.63095C18.279 0.731116 17.5479 0 16.648 0H2.14755C1.06494 0 0.17916 0.871716 0.1651 1.95433C0.1651 1.9637 0.1651 1.97308 0.1651 1.98245V17.9827C0.1651 18.8825 0.896216 19.6136 1.79605 19.6136H18.7804C20.1161 19.6136 21.1988 18.5263 21.1988 17.1953V13.924H21.7424C22.4454 13.924 23.0172 13.3522 23.0172 12.6493V9.80446C23.0125 9.10146 22.4407 8.52969 21.7377 8.52969ZM2.14755 1.12479H16.648C16.9245 1.12479 17.1542 1.34975 17.1542 1.62627L17.1495 2.84479H2.14755C1.6742 2.84479 1.28989 2.46049 1.28989 1.98714C1.28989 1.51379 1.6742 1.12479 2.14755 1.12479ZM20.0693 17.1906C20.0693 17.903 19.4881 18.4841 18.7758 18.4841H1.79137C1.51485 18.4841 1.28521 18.2592 1.28521 17.978V3.77275C1.54766 3.89929 1.83823 3.96959 2.14755 3.96959H18.7758C19.4881 3.96959 20.0693 4.55073 20.0693 5.2631V8.52969H16.2309C15.5279 8.52969 14.9561 9.10146 14.9561 9.80446V12.6493C14.9561 13.3522 15.5279 13.924 16.2309 13.924H20.0693V17.1906ZM21.8877 12.6493C21.8877 12.7336 21.8221 12.7992 21.7377 12.7992H16.2356C16.1512 12.7992 16.0856 12.7336 16.0856 12.6493V9.80446C16.0856 9.72478 16.1512 9.65449 16.2356 9.65449H21.7377C21.8174 9.65449 21.8877 9.7201 21.8877 9.80446V12.6493Z" fill="white"/>
</svg>
