<svg width="16" height="16" viewBox="0 0 16 16" fill="none" xmlns="http://www.w3.org/2000/svg">
<g opacity="0.1">
<path d="M1.18527 0.888916C0.858072 0.888916 0.57874 1.00489 0.347211 1.23613C0.115813 1.46766 0 1.74702 0 2.07419C0 2.29021 0.0539984 2.48779 0.162092 2.66674C0.270024 2.84577 0.413599 2.98772 0.592555 3.0927V14.8151C0.592555 14.9015 0.620284 14.9725 0.675904 15.028C0.731427 15.0836 0.802355 15.1112 0.888882 15.1112H1.48144C1.5679 15.1112 1.63892 15.0836 1.69441 15.028C1.74997 14.9725 1.7777 14.9015 1.7777 14.8151V3.0927C1.95672 2.98772 2.10023 2.84577 2.20823 2.66674C2.31629 2.48779 2.37025 2.29012 2.37025 2.07419C2.37025 1.74712 2.25457 1.46779 2.0232 1.23613C1.79171 1.00479 1.51234 0.888916 1.18527 0.888916Z" fill="black"/>
<path d="M15.7135 2.15748C15.5221 2.04643 15.3308 2.04034 15.1391 2.13906C15.0838 2.17003 14.988 2.22241 14.8522 2.29648C13.6918 2.98782 12.7351 3.33354 11.9819 3.33354C11.6671 3.33354 11.3922 3.27487 11.1578 3.15763C10.4665 2.81814 9.82138 2.55266 9.2226 2.36124C8.62382 2.17003 7.97875 2.07429 7.28744 2.07429C6.83684 2.07429 6.35838 2.13296 5.85229 2.25026C5.3461 2.3675 4.87532 2.52029 4.44015 2.70846C4.00502 2.89675 3.65304 3.05722 3.38464 3.18997C3.11595 3.32271 2.87368 3.45376 2.65772 3.58346C2.46634 3.70689 2.37061 3.87664 2.37061 4.09273V10.9631C2.37061 11.1915 2.46939 11.3644 2.6669 11.4816C2.76565 11.5311 2.86444 11.5556 2.96323 11.5556C3.07427 11.5556 3.1762 11.5279 3.2687 11.4725C3.85509 11.1144 4.56028 10.7995 5.38436 10.5279C6.20855 10.2563 6.93543 10.1205 7.56506 10.1205C7.92294 10.1205 8.27498 10.1636 8.6206 10.2501C8.96619 10.3365 9.24721 10.4261 9.46317 10.5186C9.67904 10.6112 9.98457 10.7593 10.3798 10.9631L10.6391 11.0927C11.071 11.3089 11.5587 11.417 12.1018 11.417C13.034 11.417 14.1729 11.0589 15.5186 10.3429C15.5618 10.3182 15.6142 10.2905 15.6759 10.2595C15.8919 10.1484 16.0001 9.97262 16.0001 9.73181V2.66675C16.0003 2.45072 15.9046 2.28104 15.7135 2.15748ZM14.8149 9.38003C13.747 9.94781 12.8427 10.2317 12.102 10.2318C11.7502 10.2318 11.4386 10.1639 11.1667 10.0282L10.9076 9.89858C10.568 9.73185 10.3133 9.61 10.1437 9.53275C9.974 9.4555 9.73615 9.35986 9.43084 9.24573C9.12517 9.13154 8.82275 9.0513 8.52344 9.00499C8.22413 8.95871 7.90461 8.93562 7.56502 8.93562C6.40443 8.93562 5.06819 9.28436 3.55572 9.98202V4.4355C4.97557 3.65143 6.21944 3.25947 7.28728 3.25947C7.86758 3.25947 8.4169 3.34437 8.93529 3.51415C9.4537 3.68383 10.0217 3.92003 10.6391 4.22239C11.0278 4.41993 11.4754 4.51872 11.9815 4.51872C12.8272 4.51872 13.7717 4.23776 14.815 3.67611V9.38003H14.8149Z" fill="black"/>
</g>
</svg>
