<svg width="16" height="17" viewBox="0 0 16 17" fill="none" xmlns="http://www.w3.org/2000/svg">
<g opacity="0.1">
<path d="M7.10523 6.76466C7.73295 6.0838 8.07882 5.1705 8.07882 4.19275C8.07882 2.33114 6.74912 0.446594 4.20725 0.446594C3.02432 0.446594 2.02637 0.852898 1.32115 1.62156C0.696472 2.30252 0.352539 3.21561 0.352539 4.19275C0.352539 6.05457 1.67661 7.93901 4.20725 7.93901C5.3946 7.93907 6.39691 7.53307 7.10523 6.76466ZM4.20725 2.18843C5.59998 2.18843 6.23426 3.2281 6.23426 4.19407C6.23426 4.71954 6.05744 5.20598 5.7361 5.56361C5.3776 5.96306 4.8566 6.17429 4.22984 6.17429C2.80188 6.17429 2.15137 5.13472 2.15137 4.16885C2.15137 3.18324 2.78717 2.18843 4.20725 2.18843Z" fill="black"/>
<path d="M13.452 1.89176C13.2216 1.89592 12.9071 2.03954 12.753 2.21082L1.31826 14.9243C1.16423 15.0957 1.27335 15.3359 1.5037 15.3359H3.00032C3.23067 15.3359 3.54486 15.1955 3.69864 15.0239L15.0627 2.31304C15.2164 2.14135 15.2062 1.86202 14.8256 1.86212L13.452 1.89176Z" fill="black"/>
<path d="M12.2022 9.36957C11.0421 9.36957 10.0631 9.76836 9.37124 10.5224C8.75849 11.1901 8.4209 12.086 8.4209 13.0446C8.4209 14.8708 9.71979 16.7195 12.2023 16.7195C13.3673 16.7195 14.3503 16.3211 15.0453 15.5674C15.6611 14.8994 16.0003 14.0035 16.0003 13.0446C16.0003 11.2184 14.6957 9.36957 12.2022 9.36957ZM12.2247 15.0331C10.8354 15.0331 10.2024 13.9898 10.2024 13.0209C10.2024 12.4933 10.3791 12.005 10.7002 11.646C11.0581 11.2454 11.5775 11.0337 12.2023 11.0337C13.5917 11.0337 14.2244 12.0767 14.2244 13.0459C14.2244 13.5734 14.0476 14.0618 13.7268 14.4208C13.3687 14.8213 12.8493 15.0331 12.2247 15.0331Z" fill="black"/>
</g>
</svg>
