<svg width="35" height="35" viewBox="0 0 35 35" fill="none" xmlns="http://www.w3.org/2000/svg">
<g opacity="0.9">
<path d="M35 4.49982L29.7502 5.24966L30.5002 0L26.507 3.99308C23.7889 2.14272 20.5058 1.0606 16.9697 1.0606C7.59753 1.0606 0 8.65812 0 18.0303C0 27.4025 7.59753 35 16.9697 35C26.3417 35 33.9393 27.4025 33.9393 18.0303C33.9393 14.4942 32.8572 11.2109 31.0069 8.49283L35 4.49982ZM26.7192 27.7798C24.115 30.384 20.6527 31.8181 16.9697 31.8181C13.2868 31.8181 9.82434 30.384 7.22025 27.7798C4.61604 25.1757 3.18186 21.7133 3.18186 18.0303C3.18186 14.3473 4.61604 10.8849 7.22025 8.28078C9.82434 5.67656 13.2868 4.24238 16.9697 4.24238C20.117 4.24238 23.1026 5.29047 25.5299 7.22025L21.7382 11.0119C20.3792 10.0868 18.7378 9.54543 16.9697 9.54543C12.2836 9.54543 8.4849 13.3442 8.4849 18.0303C8.4849 22.7163 12.2837 26.5151 16.9697 26.5151C21.6558 26.5151 25.4546 22.7163 25.4546 18.0303C25.4546 16.2622 24.9132 14.6208 23.9881 13.2618L27.7797 9.4701C29.7095 11.8973 30.7576 14.883 30.7576 18.0303C30.7575 21.7133 29.3234 25.1756 26.7192 27.7798ZM16.269 18.731C16.5796 19.0416 16.9868 19.197 17.394 19.197C17.8011 19.197 18.2083 19.0417 18.5188 18.7309L21.6702 15.5796C22.0541 16.3132 22.2727 17.1465 22.2727 18.0303C22.2727 20.9544 19.8938 23.3334 16.9697 23.3334C14.0455 23.3334 11.6666 20.9545 11.6666 18.0303C11.6666 15.1062 14.0455 12.7273 16.9697 12.7273C17.8535 12.7273 18.6867 12.9458 19.4203 13.3298L16.2689 16.4812C15.6477 17.1025 15.6477 18.1098 16.269 18.731Z" fill="white"/>
</g>
</svg>
