<svg width="18" height="18" viewBox="0 0 18 18" fill="none" xmlns="http://www.w3.org/2000/svg">
<g opacity="0.1">
<path d="M5.84196 16.4447L5.84197 16.4447C6.8446 16.8748 7.88854 17.0912 8.98685 17.0912C10.0852 17.0912 11.1371 16.8725 12.1403 16.4448L12.1403 16.4448C14.1472 15.5888 15.5994 14.1307 16.4533 12.1407L16.4533 12.1407C16.8834 11.1379 17.1 10.0852 17.1 8.98682C17.1 7.88854 16.8835 6.84456 16.4533 5.84195C15.5995 3.85154 14.1471 2.40248 12.1405 1.54666C11.1371 1.11872 10.0854 0.9 8.98685 0.9C7.88856 0.9 6.84441 1.11667 5.84197 1.54674C3.85194 2.40029 2.39321 3.84834 1.53796 5.84196C1.10898 6.8417 0.9 7.88907 0.9 8.98682C0.9 10.0847 1.10894 11.1406 1.53796 12.1407C2.39313 14.1341 3.85193 15.5908 5.84196 16.4447ZM12.462 14.9979L12.462 14.9979C11.4006 15.6168 10.2379 15.929 8.98703 15.929C8.04681 15.929 7.15062 15.748 6.29746 15.3774L6.29745 15.3774C5.44161 15.0058 4.7046 14.5182 4.08883 13.9026C3.47312 13.2869 2.98204 12.5427 2.61422 11.6856L2.61421 11.6856C2.24865 10.8343 2.07122 9.9277 2.07122 8.98685C2.07122 7.73555 2.37843 6.57889 2.9938 5.52054L2.9938 5.52054C3.61167 4.45778 4.4597 3.61476 5.52098 2.99344L5.52099 2.99343C6.58109 2.37271 7.736 2.06225 8.98685 2.06225C10.2379 2.06225 11.4003 2.37457 12.4618 2.99352L12.5122 2.90714L12.4618 2.99353C13.5306 3.61666 14.3767 4.45964 14.9978 5.52076L14.9978 5.52077C15.6185 6.58106 15.9288 7.73578 15.9288 8.98682C15.9288 10.2381 15.6205 11.4027 14.9979 12.4708C14.3787 13.5326 13.5309 14.3747 12.462 14.9979Z" fill="black" stroke="black" stroke-width="0.2"/>
<path d="M8.58391 9.52078L8.58385 9.52072C8.45858 9.39524 8.40554 9.23724 8.42285 9.05652C8.42219 9.054 8.42121 9.05073 8.41978 9.04644L8.417 9.03836L8.41373 9.02888C8.41269 9.02574 8.41115 9.021 8.40981 9.01582L8.40979 9.01573C8.40888 9.01223 8.40586 9.00058 8.40586 8.98628V4.38484C8.40586 4.05845 8.67814 3.79496 8.98698 3.79496C9.30879 3.79496 9.59443 4.05395 9.59443 4.38484V8.87511L12.0149 11.3129C12.2396 11.5391 12.2568 11.8942 12.0147 12.1363L8.58391 9.52078ZM8.58391 9.52078L11.1997 12.1364M8.58391 9.52078L11.1997 12.1364M11.1997 12.1364C11.3089 12.2456 11.4606 12.2969 11.6072 12.2969M11.1997 12.1364L11.6072 12.2969M11.6072 12.2969C11.7538 12.2969 11.9055 12.2456 12.0146 12.1364L11.6072 12.2969Z" fill="black" stroke="black" stroke-width="0.2"/>
</g>
</svg>
